<svg viewBox="0 0 600 350" height="350" width="600" xmlns="http://www.w3.org/2000/svg" style="font-family:&quot;Lucida Grande&quot;, &quot;Lucida Sans Unicode&quot;, Arial, Helvetica, sans-serif;font-size:12px;" class="highcharts-root" version="1.1" xmlns:xlink="http://www.w3.org/1999/xlink"><desc>Created with Highcharts 9.3.0</desc><defs><clipPath id="highcharts-y1qvkag-53-"><rect fill="none" height="264" width="517" y="0" x="0"></rect></clipPath><clipPath id="highcharts-y1qvkag-62-"><rect fill="none" height="264" width="517" y="0" x="0"></rect></clipPath></defs><rect ry="0" rx="0" height="350" width="600" y="0" x="0" class="highcharts-background" fill="#ffffff"></rect><rect height="264" width="517" y="10" x="73" class="highcharts-plot-background" fill="none"></rect><g data-z-index="0" class="highcharts-pane-group"></g><g data-z-index="1" class="highcharts-grid highcharts-xaxis-grid"><path opacity="1" d="M 123.5 10 L 123.5 274" class="highcharts-grid-line" data-z-index="1" stroke-dasharray="none" fill="none"></path><path opacity="1" d="M 242.5 10 L 242.5 274" class="highcharts-grid-line" data-z-index="1" stroke-dasharray="none" fill="none"></path><path opacity="1" d="M 360.5 10 L 360.5 274" class="highcharts-grid-line" data-z-index="1" stroke-dasharray="none" fill="none"></path><path opacity="1" d="M 479.5 10 L 479.5 274" class="highcharts-grid-line" data-z-index="1" stroke-dasharray="none" fill="none"></path></g><g data-z-index="1" class="highcharts-grid highcharts-yaxis-grid"><path opacity="1" d="M 73 274.5 L 590 274.5" class="highcharts-grid-line" data-z-index="1" stroke-dasharray="none" stroke-width="1" stroke="#e6e6e6" fill="none"></path><path opacity="1" d="M 73 221.5 L 590 221.5" class="highcharts-grid-line" data-z-index="1" stroke-dasharray="none" stroke-width="1" stroke="#e6e6e6" fill="none"></path><path opacity="1" d="M 73 168.5 L 590 168.5" class="highcharts-grid-line" data-z-index="1" stroke-dasharray="none" stroke-width="1" stroke="#e6e6e6" fill="none"></path><path opacity="1" d="M 73 116.5 L 590 116.5" class="highcharts-grid-line" data-z-index="1" stroke-dasharray="none" stroke-width="1" stroke="#e6e6e6" fill="none"></path><path opacity="1" d="M 73 63.5 L 590 63.5" class="highcharts-grid-line" data-z-index="1" stroke-dasharray="none" stroke-width="1" stroke="#e6e6e6" fill="none"></path><path opacity="1" d="M 73 9.5 L 590 9.5" class="highcharts-grid-line" data-z-index="1" stroke-dasharray="none" stroke-width="1" stroke="#e6e6e6" fill="none"></path></g><rect height="264" width="517" y="10" x="73" data-z-index="1" class="highcharts-plot-border" fill="none"></rect><g data-z-index="2" class="highcharts-axis highcharts-xaxis"><path opacity="1" d="M 123.5 274 L 123.5 284" stroke-width="1" stroke="#ccd6eb" class="highcharts-tick" fill="none"></path><path opacity="1" d="M 242.5 274 L 242.5 284" stroke-width="1" stroke="#ccd6eb" class="highcharts-tick" fill="none"></path><path opacity="1" d="M 360.5 274 L 360.5 284" stroke-width="1" stroke="#ccd6eb" class="highcharts-tick" fill="none"></path><path opacity="1" d="M 479.5 274 L 479.5 284" stroke-width="1" stroke="#ccd6eb" class="highcharts-tick" fill="none"></path><path d="M 73 274.5 L 590 274.5" data-z-index="7" stroke-width="1" stroke="#ccd6eb" class="highcharts-axis-line" fill="none"></path></g><g data-z-index="2" class="highcharts-axis highcharts-yaxis"><text y="142" style="color:#666666;font-size:12px;fill:#666666;" class="highcharts-axis-title" transform="translate(0,0) rotate(270 23.6484375 142)" text-anchor="middle" data-z-index="7" x="23.6484375">AUC</text><path d="M 73 10 L 73 274" data-z-index="7" class="highcharts-axis-line" fill="none"></path></g><g data-z-index="3" class="highcharts-series-group"><g clip-path="url(#highcharts-y1qvkag-62-)" transform="translate(73,10) scale(1 1)" opacity="1" data-z-index="1" class="highcharts-series highcharts-series-0 highcharts-scatter-series"></g><g clip-path="none" transform="translate(73,10) scale(1 1)" opacity="1" data-z-index="1" class="highcharts-markers highcharts-series-0 highcharts-scatter-series"><path class="highcharts-point tag-0" opacity="1" d="M 36 168 A 4 4 0 1 1 36.00399999933334 167.99999800000018 Z" fill="#ddd"></path><path class="highcharts-point tag-0" opacity="1" d="M 195 119 A 4 4 0 1 1 195.00399999933333 118.99999800000016 Z" fill="#ddd"></path><path class="highcharts-point tag-0" opacity="1" d="M 195 115 A 4 4 0 1 1 195.00399999933333 114.99999800000016 Z" fill="#ddd"></path><path class="highcharts-point tag-0" opacity="1" d="M 195 155 A 4 4 0 1 1 195.00399999933333 154.99999800000018 Z" fill="#ddd"></path><path class="highcharts-point tag-0" opacity="1" d="M 223 229 A 4 4 0 1 1 223.00399999933333 228.99999800000018 Z" fill="#ddd"></path><path class="highcharts-point tag-0" opacity="1" d="M 329 106 A 4 4 0 1 1 329.00399999933336 105.99999800000016 Z" fill="#ddd"></path><path class="highcharts-point tag-0" opacity="1" d="M 329 110 A 4 4 0 1 1 329.00399999933336 109.99999800000016 Z" fill="#ddd"></path><path class="highcharts-point tag-0" opacity="1" d="M 480 152 A 4 4 0 1 1 480.00399999933336 151.99999800000018 Z" fill="#ddd"></path></g><g clip-path="url(#highcharts-y1qvkag-62-)" transform="translate(73,10) scale(1 1)" opacity="1" data-z-index="2" class="highcharts-series highcharts-series-3 highcharts-line-series"><path stroke-linecap="round" stroke-linejoin="round" stroke-width="2" stroke="#21ccc7" data-z-index="1" class="highcharts-graph" d="M 36.442174519587 140.97600000000006 L 100.44421053955 125.76960000000011 L 195.63505599055 109.8240000000001 L 329.81191323036 96.09600000000009 L 480.55782548041 84.48000000000008 L 480.55782548041 66.52800000000005" fill="none"></path></g><g clip-path="none" transform="translate(73,10) scale(1 1)" opacity="1" data-z-index="2" class="highcharts-markers highcharts-series-3 highcharts-line-series"><path class="highcharts-point tag-0" opacity="1" d="M 36 145 A 4 4 0 1 1 36.00399999933334 144.99999800000018 Z" fill="#21ccc7"></path><path class="highcharts-point tag-0" opacity="1" d="M 100 130 A 4 4 0 1 1 100.00399999933333 129.99999800000018 Z" fill="#21ccc7"></path><path class="highcharts-point tag-0" opacity="1" d="M 195 114 A 4 4 0 1 1 195.00399999933333 113.99999800000016 Z" fill="#21ccc7"></path><path class="highcharts-point tag-0" opacity="1" d="M 329 100 A 4 4 0 1 1 329.00399999933336 99.99999800000016 Z" fill="#21ccc7"></path><path class="highcharts-point tag-0" opacity="1" d="M 480 88 A 4 4 0 1 1 480.00399999933336 87.99999800000016 Z" fill="#21ccc7"></path><path class="highcharts-point tag-0" opacity="1" d="M 480 71 A 4 4 0 1 1 480.00399999933336 70.99999800000016 Z" fill="#21ccc7"></path></g><g clip-path="url(#highcharts-y1qvkag-62-)" transform="translate(73,10) scale(1 1)" opacity="1" data-z-index="3" class="highcharts-series highcharts-series-1 highcharts-errorbar-series"></g><g clip-path="none" transform="translate(73,10) scale(1 1)" opacity="1" data-z-index="3" class="highcharts-markers highcharts-series-1 highcharts-errorbar-series"></g><g clip-path="url(#highcharts-y1qvkag-62-)" transform="translate(73,10) scale(1 1)" opacity="1" data-z-index="3" class="highcharts-series highcharts-series-2 highcharts-errorbar-series"></g><g clip-path="none" transform="translate(73,10) scale(1 1)" opacity="1" data-z-index="3" class="highcharts-markers highcharts-series-2 highcharts-errorbar-series"></g></g><g transform="translate(73,10) scale(1 1)" opacity="1" data-z-index="3" class="highcharts-data-labels highcharts-series-3 highcharts-line-series"><g transform="translate(5,119)" data-z-index="1" class="highcharts-label highcharts-data-label highcharts-data-label-color-undefined"><text style="color:#4a4a4a;font-size:11px;font-weight:normal;fill:#4a4a4a;" y="16" data-z-index="1" x="5"><tspan style="" stroke-linejoin="round" stroke-width="2px" stroke="#FFFFFF" fill="#FFFFFF" class="highcharts-text-outline">DSMIL-LC<tspan y="16" x="5">​</tspan></tspan>DSMIL-LC</text></g><g transform="translate(71,104)" data-z-index="1" class="highcharts-label highcharts-data-label highcharts-data-label-color-undefined"><text style="color:#4a4a4a;font-size:11px;font-weight:normal;fill:#4a4a4a;" y="16" data-z-index="1" x="5"><tspan style="" stroke-linejoin="round" stroke-width="2px" stroke="#FFFFFF" fill="#FFFFFF" class="highcharts-text-outline">TransMIL<tspan y="16" x="5">​</tspan></tspan>TransMIL</text></g><g transform="translate(149,88)" data-z-index="1" class="highcharts-label highcharts-data-label highcharts-data-label-color-undefined"><text style="color:#4a4a4a;font-size:11px;font-weight:normal;fill:#4a4a4a;" y="16" data-z-index="1" x="5"><tspan style="" stroke-linejoin="round" stroke-width="2px" stroke="#FFFFFF" fill="#FFFFFF" class="highcharts-text-outline">DTFD-MIL (AFS)<tspan y="16" x="5">​</tspan></tspan>DTFD-MIL (AFS)</text></g><g transform="translate(308,74)" data-z-index="1" class="highcharts-label highcharts-data-label highcharts-data-label-color-undefined"><text style="color:#4a4a4a;font-size:11px;font-weight:normal;fill:#4a4a4a;" y="16" data-z-index="1" x="5"><tspan style="" stroke-linejoin="round" stroke-width="2px" stroke="#FFFFFF" fill="#FFFFFF" class="highcharts-text-outline">CAMIL<tspan y="16" x="5">​</tspan></tspan>CAMIL</text></g><g transform="translate(368,62)" data-z-index="1" class="highcharts-label highcharts-data-label highcharts-data-label-color-undefined"><text style="color:#4a4a4a;font-size:11px;font-weight:normal;fill:#4a4a4a;" y="16" data-z-index="1" x="5"><tspan style="" stroke-linejoin="round" stroke-width="2px" stroke="#FFFFFF" fill="#FFFFFF" class="highcharts-text-outline">Snuffy (SimCLR Exhaustive)<tspan y="16" x="5">​</tspan></tspan>Snuffy (SimCLR Exhaustive)</text></g><g transform="translate(380,45)" data-z-index="1" class="highcharts-label highcharts-data-label highcharts-data-label-color-undefined"><text style="color:#4a4a4a;font-size:11px;font-weight:normal;fill:#4a4a4a;" y="16" data-z-index="1" x="5"><tspan style="" stroke-linejoin="round" stroke-width="2px" stroke="#FFFFFF" fill="#FFFFFF" class="highcharts-text-outline">Snuffy (DINO Exhaustive)<tspan y="16" x="5">​</tspan></tspan>Snuffy (DINO Exhaustive)</text></g></g><text y="24" style="color:#333333;font-size:18px;fill:#333333;" data-z-index="4" class="highcharts-title" text-anchor="middle" x="300"></text><text y="24" style="color:#666666;fill:#666666;" data-z-index="4" class="highcharts-subtitle" text-anchor="middle" x="300"></text><text y="347" style="color:#666666;fill:#666666;" data-z-index="4" class="highcharts-caption" text-anchor="start" x="10"></text><g transform="translate(73,10) scale(1 1)" opacity="1" data-z-index="6" class="highcharts-data-labels highcharts-series-1 highcharts-errorbar-series"></g><g transform="translate(73,10) scale(1 1)" opacity="1" data-z-index="6" class="highcharts-data-labels highcharts-series-2 highcharts-errorbar-series"></g><g transform="translate(130,307)" data-z-index="7" class="highcharts-legend highcharts-no-tooltip"><rect visibility="visible" height="28" width="340" y="0" x="0" ry="0" rx="0" class="highcharts-legend-box" fill="#ffffff"></rect><g data-z-index="1"><g><g transform="translate(8,3)" data-z-index="1" class="highcharts-legend-item highcharts-scatter-series highcharts-color-undefined highcharts-series-0"><path class="highcharts-graph" d="M 0 13 L 16 13" fill="none"></path><path opacity="1" class="highcharts-point" d="M 8 17 A 4 4 0 1 1 8.003999999333336 16.99999800000017 Z" fill="#ddd"></path><text y="17" data-z-index="2" text-anchor="start" style="color:#414141;cursor:pointer;font-size:14px;font-weight:normal;fill:#414141;" x="21">Other models</text></g><g transform="translate(141.2265625,3)" data-z-index="1" class="highcharts-legend-item highcharts-line-series highcharts-color-undefined highcharts-series-3"><path stroke-width="2" stroke="#21ccc7" class="highcharts-graph" d="M 0 13 L 16 13" fill="none"></path><path opacity="1" class="highcharts-point" d="M 8 17 A 4 4 0 1 1 8.003999999333336 16.99999800000017 Z" fill="#21ccc7"></path><text data-z-index="2" text-anchor="start" style="color:#414141;cursor:pointer;font-size:14px;font-weight:normal;fill:#414141;" y="17" x="21">Models with highest AUC</text></g></g></g></g><g data-z-index="7" class="highcharts-axis-labels highcharts-xaxis-labels"><text opacity="1" y="293" transform="translate(0,0)" text-anchor="middle" style="color:#666666;cursor:default;font-size:11px;fill:#666666;" x="124.06192894039">2021</text><text opacity="1" y="293" transform="translate(0,0)" text-anchor="middle" style="color:#666666;cursor:default;font-size:11px;fill:#666666;" x="242.64438146468">2022</text><text opacity="1" y="293" transform="translate(0,0)" text-anchor="middle" style="color:#666666;cursor:default;font-size:11px;fill:#666666;" x="361.22683398897">2023</text><text opacity="1" y="293" transform="translate(0,0)" text-anchor="middle" style="color:#666666;cursor:default;font-size:11px;fill:#666666;" x="479.80928651325">2024</text></g><g data-z-index="7" class="highcharts-axis-labels highcharts-yaxis-labels"><text opacity="1" y="279" transform="translate(0,0)" text-anchor="end" style="color:#666666;cursor:default;font-size:11px;fill:#666666;" x="58">0.8</text><text opacity="1" y="226" transform="translate(0,0)" text-anchor="end" style="color:#666666;cursor:default;font-size:11px;fill:#666666;" x="58">0.85</text><text opacity="1" y="173" transform="translate(0,0)" text-anchor="end" style="color:#666666;cursor:default;font-size:11px;fill:#666666;" x="58">0.9</text><text opacity="1" y="120" transform="translate(0,0)" text-anchor="end" style="color:#666666;cursor:default;font-size:11px;fill:#666666;" x="58">0.95</text><text opacity="1" y="67" transform="translate(0,0)" text-anchor="end" style="color:#666666;cursor:default;font-size:11px;fill:#666666;" x="58">1</text><text opacity="1" y="15" transform="translate(0,0)" text-anchor="end" style="color:#666666;cursor:default;font-size:11px;fill:#666666;" x="58">1.05</text></g></svg>